<svg xmlns="http://www.w3.org/2000/svg" width="512" height="512" viewBox="0 0 512 512" version="1.1">
    <path d="" stroke="none" fill="currentColor" fill-rule="evenodd" />
    <path
        d="M 374.500 13.555 C 336.845 19.918, 301.348 47.416, 286.400 81.802 L 283.054 89.500 177.970 90 L 72.885 90.500 71.057 92.924 C 69.378 95.150, 69.180 98.776, 68.618 137.424 C 68.282 160.566, 67.726 226.619, 67.382 284.210 L 66.757 388.919 35.957 389.210 L 5.158 389.500 2.510 391.990 L -0.139 394.479 0.213 421.490 C 0.598 450.926, 0.633 451.142, 7.329 465 C 9.533 469.561, 13.011 474.073, 18.985 480.124 C 25.986 487.214, 29.033 489.485, 36.122 492.897 C 51.569 500.333, 44.165 500.002, 194.838 499.983 C 309.191 499.968, 330.556 499.744, 336.500 498.501 C 359.947 493.595, 379.947 474.168, 386.028 450.391 C 387.924 442.976, 388 438.947, 388 345.484 L 388 248.287 400.750 247.724 C 451.957 245.461, 495.472 209.758, 508.681 159.170 C 512.100 146.072, 512.966 123.767, 510.586 110.099 C 499.446 46.144, 438.311 2.773, 374.500 13.555 M 384.297 30.066 C 361.297 32.293, 339.732 42.551, 323.158 59.148 C 306.222 76.107, 296.092 97.693, 294.161 120.940 C 291.561 152.235, 301.599 179.891, 323.410 201.524 C 343.931 221.878, 370.257 232.100, 398.500 230.680 C 424.231 229.387, 445.749 220.053, 464.235 202.167 C 480.148 186.770, 489.663 168.786, 493.384 147.074 C 504.599 81.644, 450.533 23.652, 384.297 30.066 M 389.476 53.396 C 385.809 54.994, 384 58.638, 384 64.430 C 384 68.711, 383.929 68.800, 378.293 71.558 C 360.600 80.214, 353.482 100.838, 362.050 118.623 C 367.570 130.079, 378.737 137.591, 391.890 138.694 C 402.939 139.620, 409.960 144.938, 411.587 153.612 C 414.113 167.078, 400.138 178.781, 387.315 173.936 C 381.597 171.776, 376 164.644, 376 159.518 C 376 151.768, 369.980 146.523, 363.953 149.020 C 357.600 151.651, 356.693 158.760, 361.182 170.758 C 363.724 177.550, 371.685 185.814, 378.750 188.994 L 384 191.357 384 196.228 C 384 202.346, 386.031 206.356, 389.953 207.980 C 396.509 210.696, 402 205.366, 402 196.284 L 402 191.469 407.165 189.635 C 413.857 187.258, 422.145 179.441, 425.745 172.109 C 428.165 167.183, 428.500 165.343, 428.500 157 C 428.500 148.624, 428.169 146.827, 425.706 141.810 C 422.166 134.602, 413.766 126.798, 406.747 124.197 C 403.861 123.128, 398.560 121.946, 394.968 121.570 C 391.208 121.177, 386.760 119.948, 384.488 118.673 C 374.271 112.943, 373.018 97.211, 382.165 89.515 C 392.759 80.600, 409.285 86.788, 411.504 100.500 C 412.561 107.031, 414.002 109.758, 417.066 111.027 C 420.577 112.481, 424.329 111.671, 427.151 108.849 C 428.984 107.016, 429.190 105.896, 428.771 100.037 C 427.874 87.505, 419.315 75.808, 407.439 70.886 C 402.028 68.644, 402 68.609, 402 64.266 C 402 58.489, 399.798 54.474, 395.881 53.108 C 394.132 52.499, 392.656 52.018, 392.601 52.039 C 392.545 52.061, 391.139 52.671, 389.476 53.396 M 85.630 196.750 C 85.293 246.113, 84.750 309.563, 84.424 337.750 L 83.832 389 174.851 389 C 235.405 389, 266.785 389.348, 268.603 390.039 C 273.766 392.002, 273.933 392.821, 273.983 416.500 C 274.035 441.139, 274.998 447.463, 280.174 457.175 C 286.970 469.925, 301.120 479.864, 315.566 482.035 C 340.650 485.805, 365.256 468.206, 369.985 443.114 C 370.627 439.706, 371 402.595, 371 342.080 L 371 246.432 361.250 243.523 C 336.667 236.187, 314.876 220.848, 299.068 199.750 L 294.760 194 249.936 194 L 205.112 194 202.456 191.716 C 200.419 189.964, 199.800 188.515, 199.800 185.500 C 199.800 182.485, 200.419 181.036, 202.456 179.284 L 205.112 177 245.422 177 L 285.732 177 282.364 167.163 C 277.719 153.596, 275.661 139.303, 276.365 125.500 C 276.674 119.450, 277.227 112.813, 277.594 110.750 L 278.262 107 182.252 107 L 86.243 107 85.630 196.750 M 145.385 161.565 C 139.937 163.566, 133.453 169.229, 130.739 174.357 C 129.045 177.557, 128.546 180.207, 128.546 186 C 128.546 194.960, 130.732 199.903, 137.106 205.359 C 151.650 217.808, 175.232 211.427, 180.523 193.612 C 182.377 187.368, 182.377 184.632, 180.523 178.388 C 177.409 167.905, 167.740 160.777, 156 160.312 C 152.060 160.156, 147.880 160.649, 145.385 161.565 M 151.388 177.942 C 148.641 179.102, 145 183.762, 145 186.119 C 145 187.136, 146.304 189.428, 147.898 191.211 C 150.261 193.857, 151.541 194.455, 154.841 194.455 C 166.070 194.455, 167.506 179.375, 156.452 177.541 C 154.828 177.272, 152.550 177.452, 151.388 177.942 M 146 233.537 C 140.224 235.330, 134.725 239.911, 131.249 245.824 C 128.903 249.815, 128.503 251.599, 128.520 258 C 128.542 266.303, 130.020 270.156, 135.362 275.838 C 145.531 286.654, 163.384 286.711, 174.133 275.963 C 185.451 264.644, 183.767 246.238, 170.593 237.277 C 162.714 231.918, 154.994 230.744, 146 233.537 M 152.500 249.731 C 147.391 250.946, 144.205 256.667, 146.096 261.231 C 149.893 270.398, 164.643 267.262, 163.817 257.463 C 163.376 252.232, 157.852 248.457, 152.500 249.731 M 204.384 250.422 C 200.448 252.151, 198.644 256.681, 200.160 261.030 C 202.272 267.088, 201.343 267, 263.516 267 C 321.616 267, 322.769 266.927, 325.718 263.087 C 327.916 260.224, 327.262 254.594, 324.420 251.924 L 321.840 249.500 264.670 249.276 C 218.099 249.094, 206.922 249.307, 204.384 250.422 M 146.882 305.381 C 131.186 310.990, 123.853 326.571, 130.353 340.500 C 138.699 358.386, 163.333 361.492, 175.961 346.251 C 187.600 332.204, 180.580 310.813, 162.576 305.467 C 156.583 303.687, 151.697 303.660, 146.882 305.381 M 148.289 324.250 C 145.280 327.537, 144.685 330.491, 146.373 333.755 C 149.237 339.292, 156.027 340.531, 160.923 336.411 C 164.899 333.065, 165.159 328.069, 161.545 324.455 C 158.196 321.106, 151.265 320.999, 148.289 324.250 M 202.455 324.455 C 198.910 327.999, 198.832 333.047, 202.264 336.750 L 204.349 339 263.220 339 L 322.091 339 324.545 336.545 C 326.240 334.851, 327 332.979, 327 330.500 C 327 328.021, 326.240 326.149, 324.545 324.455 L 322.091 322 263.500 322 L 204.909 322 202.455 324.455 M 17 422.951 C 17 441.164, 17.924 446.867, 22.352 455.980 C 28.830 469.314, 42.895 479.562, 58 481.955 C 62.160 482.614, 102.965 482.988, 171.330 482.992 L 278.160 483 273.126 477.352 C 266.704 470.147, 261.479 460.194, 258.972 450.391 C 257.371 444.131, 257 439.322, 257 424.840 L 257 407 137 407 L 17 407 17 422.951"
        stroke="none" fill="currentColor" fill-rule="evenodd" />
</svg>