<svg xmlns="http://www.w3.org/2000/svg" width="512" height="512" viewBox="0 0 512 512" version="1.1">
    <path d="" stroke="none" fill="currentColor" fill-rule="evenodd" />
    <path
        d="M 105.836 59.919 C 95.741 63.147, 86.724 70.079, 80.984 79.025 C 79.218 81.777, 69.200 107.235, 57.954 137.548 L 38.051 191.199 24.119 204.850 C 11.927 216.796, 9.744 219.438, 6.637 226.015 C -0.162 240.406, 0.031 237.340, 0.015 331.068 C -0.002 424.696, -0.252 420.813, 6.531 432 C 10.521 438.581, 15.718 443.724, 22.500 447.805 C 31.586 453.272, 36.052 454, 60.525 454 C 80.100 454, 83.367 453.766, 88.514 451.995 C 101.251 447.613, 110.192 439.837, 115.697 428.355 C 119.680 420.046, 120.952 412.679, 120.980 397.750 L 121 387 256 387 L 391 387 391.020 397.750 C 391.048 412.679, 392.320 420.046, 396.303 428.355 C 401.808 439.837, 410.749 447.613, 423.486 451.995 C 428.633 453.766, 431.900 454, 451.475 454 C 476.228 454, 480.393 453.294, 490 447.469 C 499.456 441.735, 507.345 431.727, 510.074 422 C 510.769 419.525, 511.711 417.072, 512.169 416.550 C 512.626 416.027, 513 377.502, 513 330.937 C 513 248.773, 512.939 246.027, 510.936 237.887 C 507.632 224.465, 503.157 216.580, 491.584 203.792 L 481.365 192.500 462.082 140.500 C 451.476 111.900, 441.698 86.164, 440.354 83.308 C 435.394 72.774, 425.265 64.082, 413.282 60.078 C 407.094 58.010, 406.317 58, 259.282 58.054 C 119.469 58.105, 111.195 58.205, 105.836 59.919 M 113.994 80.926 C 106.529 83.222, 101.251 87.903, 98.125 95 C 96.148 99.489, 64 185.752, 64 186.569 C 64 186.806, 113.050 187, 173 187 L 282 187 282 184.665 C 282 181.065, 285.808 170.221, 289.652 162.872 C 297.112 148.611, 309.372 137.031, 324.500 129.954 C 358.479 114.058, 399.294 125.845, 419.465 157.378 C 424.105 164.631, 426.731 170.741, 428.976 179.500 L 430.770 186.500 442.885 186.781 C 449.548 186.935, 455 186.854, 455 186.600 C 455 185.762, 422.899 99.594, 420.875 95 C 418.447 89.488, 414.776 85.505, 409.500 82.658 L 405.500 80.500 261 80.327 C 181.525 80.233, 115.372 80.502, 113.994 80.926 M 343.161 147.032 C 325.754 151.592, 312.500 163.673, 306.367 180.571 L 304.033 187 355.642 187 L 407.250 187 406.624 183.871 C 405.289 177.195, 399.506 167.492, 392.921 160.879 C 385.404 153.331, 376.859 148.713, 366.246 146.464 C 357.346 144.578, 352.031 144.709, 343.161 147.032 M 41.331 219.407 C 28.838 231.294, 24.534 238.243, 22.973 249.049 C 21.609 258.484, 21.735 339.666, 23.123 346.139 C 24.033 350.382, 25.220 352.345, 29.373 356.472 C 32.602 359.681, 36.024 362.018, 38.616 362.784 C 44.436 364.503, 467.407 364.557, 473.142 362.839 C 478.157 361.337, 484.482 355.882, 487.284 350.643 C 489.466 346.564, 489.505 345.787, 489.806 300.500 C 490.140 250.215, 489.582 241.776, 485.350 233.112 C 483.902 230.148, 478.906 223.511, 474.246 218.362 L 465.775 209 259.022 209 L 52.268 209 41.331 219.407 M 0.478 331 C 0.478 378.575, 0.600 398.038, 0.750 374.250 C 0.899 350.463, 0.899 311.538, 0.750 287.750 C 0.600 263.963, 0.478 283.425, 0.478 331 M 58.500 253.403 C 56.850 254.131, 54.600 255.735, 53.500 256.967 C 51.604 259.090, 51.485 260.843, 51.210 290.617 C 50.957 317.886, 51.132 322.477, 52.537 325.436 C 55.699 332.099, 55.815 332.113, 104.905 331.790 L 148.841 331.500 151.437 329.060 C 155.771 324.987, 156.148 321.606, 155.813 289.821 C 155.515 261.525, 155.402 260.011, 153.406 257.321 C 152.255 255.770, 149.780 253.963, 147.906 253.306 C 142.770 251.507, 62.600 251.593, 58.500 253.403 M 364.094 253.306 C 362.220 253.963, 359.745 255.770, 358.594 257.321 C 356.598 260.011, 356.485 261.525, 356.187 289.821 C 355.852 321.606, 356.229 324.987, 360.563 329.060 L 363.159 331.500 407.095 331.790 C 456.185 332.113, 456.301 332.099, 459.463 325.436 C 460.868 322.477, 461.043 317.886, 460.790 290.617 C 460.515 260.843, 460.396 259.090, 458.500 256.966 C 454.186 252.130, 452.828 251.996, 408.782 252.056 C 379.499 252.096, 366.510 252.460, 364.094 253.306 M 200.500 264.833 C 190.594 268.135, 189.033 280.863, 197.967 285.483 C 202.373 287.761, 309.627 287.761, 314.033 285.483 C 319.484 282.664, 321.534 275.405, 318.384 270.072 C 314.979 264.309, 317.152 264.514, 257.500 264.333 C 227.250 264.242, 201.600 264.467, 200.500 264.833 M 74 292 L 74 309 103.500 309 L 133 309 133 292 L 133 275 103.500 275 L 74 275 74 292 M 379 292 L 379 309 408.500 309 L 438 309 438 292 L 438 275 408.500 275 L 379 275 379 292 M 200.500 298.833 C 190.305 302.232, 189.038 315.611, 198.534 319.579 C 203.570 321.683, 308.430 321.683, 313.466 319.579 C 319.314 317.135, 321.685 309.661, 318.384 304.072 C 314.979 298.309, 317.152 298.514, 257.500 298.333 C 227.250 298.242, 201.600 298.467, 200.500 298.833 M 22 395.318 C 22 413.105, 23.399 418.663, 29.386 424.649 C 35.860 431.123, 41.220 432.273, 62.835 431.825 C 82.255 431.423, 84.764 430.793, 90.930 424.764 C 96.782 419.043, 97.427 416.843, 97.824 401.250 L 98.188 387 72.666 387 C 45.381 387, 34.571 386.031, 27.356 382.938 C 24.869 381.872, 22.646 381, 22.417 381 C 22.188 381, 22 387.443, 22 395.318 M 484.293 383.011 C 477.522 386.021, 466.511 387, 439.428 387 L 414 387 414 399.374 C 414 413.547, 415.311 418.645, 420.293 423.834 C 426.844 430.659, 429.538 431.404, 449.165 431.818 C 470.780 432.275, 476.137 431.126, 482.614 424.649 C 488.601 418.663, 490 413.105, 490 395.318 C 490 387.443, 489.663 381.032, 489.250 381.071 C 488.837 381.109, 486.607 381.983, 484.293 383.011"
        stroke="none" fill="currentColor" fill-rule="evenodd" />
</svg>