<svg xmlns="http://www.w3.org/2000/svg" width="512" height="512" viewBox="0 0 512 512" version="1.1">
    <path d="" stroke="none" fill="currentColor" fill-rule="evenodd" />
    <path
        d="M 275.605 1.922 C 266.718 7.781, 266.451 21.655, 275.125 26.930 C 276.791 27.943, 282.922 29.777, 288.749 31.006 C 337.282 41.240, 378.661 63.601, 413.345 98.337 C 448.368 133.412, 470.167 173.890, 480.938 223.843 C 482.045 228.982, 483.871 234.674, 484.995 236.492 C 487.128 239.944, 493.025 243, 497.552 243 C 504.119 243, 510.384 237.802, 511.594 231.351 C 512.789 224.980, 505.291 194.519, 497.383 173.615 C 491.927 159.192, 479.847 135.596, 471.043 122.163 C 460.063 105.410, 449 91.897, 434.049 76.978 C 395.591 38.602, 349.062 13.214, 296.767 2.073 C 284.619 -0.515, 279.358 -0.552, 275.605 1.922 M 91 29.628 C 85.775 30.634, 78.298 33.409, 73 36.309 C 65.542 40.392, 16.946 89.034, 12.145 97.221 C 4.561 110.157, 1.102 122.074, 0.303 138.030 C -0.595 155.975, 1.993 173.932, 8.658 195.987 C 34.341 280.975, 103.277 373.950, 186 435.169 C 231.149 468.582, 288.182 497.527, 326.500 506.477 C 345.168 510.837, 349.650 511.387, 367 511.443 C 387.599 511.510, 394.596 509.982, 409.390 502.185 C 419.334 496.945, 423.624 493.066, 452.726 463 C 472.202 442.879, 476.750 436.407, 479.444 424.978 C 481.391 416.716, 481.398 409.950, 479.469 402.542 C 476.173 389.888, 473.604 386.645, 438.643 351 C 420.571 332.575, 403.246 315.340, 400.143 312.700 C 384.011 298.976, 364.768 296.511, 346.025 305.769 C 339.496 308.994, 335.909 312.054, 317.687 329.949 L 296.824 350.437 288.162 346.016 C 245.530 324.256, 184.760 263.264, 164.388 221.789 L 160.600 214.078 181.135 193.274 C 200.242 173.917, 201.975 171.856, 206.043 163.646 C 210.077 155.504, 210.447 154.099, 210.824 145.474 C 211.151 138.013, 210.813 134.742, 209.151 129.271 C 205.428 117.015, 201.116 111.803, 164.155 74.894 C 128.441 39.231, 124.130 35.622, 112.500 31.649 C 107.362 29.894, 95.441 28.774, 91 29.628 M 93.010 60.150 C 87.206 61.866, 81.367 66.907, 59.975 88.670 C 37.326 111.712, 34.357 116.004, 31.385 130 C 23.239 168.371, 53.048 244.444, 101.331 308.500 C 148.732 371.385, 205.095 419.110, 272.423 453.372 C 310.386 472.690, 342.105 482.181, 368.500 482.119 C 379.712 482.093, 387.716 480.341, 395.425 476.224 C 401.648 472.901, 445.375 428.939, 448.705 422.659 C 451.657 417.089, 451.613 411.126, 448.575 405.217 C 445.296 398.838, 380.113 333.763, 374.782 331.546 C 372.737 330.696, 369.587 330.010, 367.782 330.022 C 360.712 330.069, 356.284 333.442, 333.025 356.496 C 318.813 370.584, 309.017 379.513, 306.722 380.472 C 302.112 382.398, 294.288 382.436, 289.786 380.555 C 282.597 377.551, 261.153 365.504, 252.524 359.620 C 209.358 330.191, 164.956 283.548, 142.142 243.668 C 134.551 230.400, 129.916 219.586, 129.312 213.737 C 128.337 204.284, 130.207 201.617, 154.520 177.797 C 166.413 166.143, 177.289 154.656, 178.688 152.269 C 181.964 146.679, 182.155 140.023, 179.198 134.500 C 176.267 129.024, 111.481 63.721, 107 61.725 C 102.036 59.514, 97.058 58.953, 93.010 60.150 M 271.192 95.024 C 267.849 97.063, 264.044 103.703, 264.044 107.500 C 264.044 111.194, 267.846 117.936, 271.017 119.864 C 272.740 120.912, 276.928 122.292, 280.325 122.931 C 289.851 124.723, 304.594 129.783, 314.212 134.560 C 352.174 153.417, 379.872 188.982, 388.485 229.931 C 391.102 242.372, 395.588 247.167, 404.609 247.167 C 412.785 247.167, 419 240.904, 419 232.664 C 419 223.093, 411.803 199.570, 404.264 184.500 C 381.587 139.168, 340.941 106.597, 292.500 94.939 C 282.012 92.415, 275.428 92.442, 271.192 95.024"
        stroke="none" fill="currentColor" fill-rule="evenodd" />
</svg>