<svg xmlns="http://www.w3.org/2000/svg" width="512" height="512" viewBox="0 0 512 512" version="1.1">
    <path d="" stroke="none" fill="currentColor" fill-rule="evenodd" />
    <path
        d="M 321.500 38.077 C 282.379 41.666, 245.691 50.642, 224.579 61.789 C 216.956 65.814, 215.318 67.142, 213.329 70.907 C 211.168 74.996, 211 76.483, 211 91.473 L 211 107.632 198.250 110.791 C 144.715 124.058, 80.111 155.406, 38.838 188.141 C 25.772 198.505, 9.730 214.602, 4.233 222.864 C -2.923 233.621, -4.627 228.510, 32.604 307.941 C 50.536 346.198, 67.623 381.616, 70.576 386.647 C 96.391 430.633, 139.130 460.980, 191 472.154 C 200.179 474.131, 204.457 474.421, 225 474.458 C 245.701 474.495, 249.859 474.225, 259.908 472.189 C 266.183 470.919, 272.933 469.052, 274.908 468.041 C 280.953 464.948, 298.038 449.897, 306.811 439.936 C 316.592 428.832, 326.093 414.884, 332.015 402.938 L 336.260 394.375 344.380 396.841 C 356.689 400.580, 367.381 400.385, 381.500 396.165 C 436.952 379.591, 479.335 340.812, 500.263 287.500 C 504.295 277.229, 509.499 257.059, 510.971 246 C 511.570 241.503, 511.953 205.509, 511.929 156.092 C 511.884 65.487, 512.235 70.569, 505.681 65.570 C 497.444 59.288, 473.513 50.400, 452 45.634 C 438.693 42.686, 431.149 41.422, 414.500 39.349 C 400.125 37.559, 336.614 36.690, 321.500 38.077 M 330 68.598 C 328.075 68.816, 321.325 69.481, 315 70.075 C 292.308 72.208, 268.105 77.478, 250.250 84.172 L 242 87.266 242 95.383 L 242 103.501 252.377 103.667 C 263.714 103.850, 269.309 105.696, 272.155 110.192 C 272.958 111.462, 277.862 121.612, 283.051 132.750 C 288.241 143.887, 292.940 153.004, 293.494 153.010 C 294.047 153.015, 296.462 154.579, 298.859 156.485 C 306.095 162.237, 313.424 162.405, 320.183 156.973 C 326.881 151.591, 332.887 150.595, 339.016 153.852 C 346.686 157.928, 349.496 168.225, 344.947 175.586 C 340.724 182.419, 328.830 189.235, 317.470 191.331 L 311.066 192.513 324.010 220.007 C 331.129 235.128, 337.077 247.837, 337.227 248.248 C 337.377 248.660, 340.875 248.280, 345 247.404 C 356.559 244.949, 375.897 245.911, 387 249.493 C 400.947 253.992, 410.992 259.830, 420.688 269.071 C 425.832 273.973, 427.002 276.429, 426.996 282.315 C 426.989 290.432, 420.373 296.989, 412.184 296.996 C 407.102 297.001, 405.303 296.145, 398.108 290.299 C 385.563 280.107, 375.204 276.581, 359.513 277.161 C 353.797 277.373, 348.799 277.868, 348.405 278.261 C 348.012 278.655, 348.547 283.594, 349.595 289.238 C 352.267 303.630, 352.259 337.293, 349.581 351 C 346.661 365.944, 346.445 365.150, 354 367.239 C 358.198 368.399, 361.917 368.811, 364.500 368.402 C 372.540 367.128, 389.484 360.870, 400.848 354.978 C 415.937 347.154, 427.147 338.699, 439.672 325.695 C 459.052 305.574, 471.580 282.188, 478.229 253.725 C 480.320 244.770, 480.394 242.202, 480.737 165.892 L 481.090 87.285 476.295 85.244 C 462.957 79.568, 440.474 74.143, 416.999 70.936 C 404.317 69.204, 395.320 68.763, 367.500 68.510 C 348.800 68.340, 331.925 68.380, 330 68.598 M 239.500 135.095 C 179.317 139.653, 79.768 186.608, 38.770 229.776 L 33.040 235.809 37.141 244.560 C 95.424 368.933, 96.861 371.843, 106.278 384.560 C 113.327 394.079, 128.892 409.307, 138.731 416.312 C 155.266 428.082, 176.442 437.304, 197 441.688 C 203.595 443.094, 209.983 443.500, 225.500 443.500 C 247.955 443.500, 257.267 442.210, 263.500 438.236 C 269.542 434.384, 286.742 416.509, 293.367 407.197 C 301.163 396.240, 309.914 378.778, 313.773 366.480 C 319.395 348.561, 320.441 341.369, 320.462 320.500 C 320.482 299.140, 319.227 290.682, 313.497 273.565 C 310.382 264.261, 251.279 136.683, 249.356 135.113 C 248.885 134.728, 244.450 134.720, 239.500 135.095 M 391.218 153.663 C 384.171 157.136, 380.985 166.952, 384.501 174.361 C 386.646 178.881, 396.033 186.080, 403.757 189.128 C 411.994 192.378, 428.004 192.379, 436.238 189.130 C 443.675 186.195, 450.585 181.464, 454.392 176.701 C 456.918 173.541, 457.429 172.008, 457.429 167.577 C 457.429 163.264, 456.887 161.541, 454.582 158.519 C 453.017 156.467, 450.235 154.161, 448.400 153.394 C 441.941 150.695, 437.944 151.715, 428.401 158.500 C 426.381 159.936, 423.984 160.500, 419.897 160.500 C 414.971 160.500, 413.661 160.063, 410.156 157.245 C 403.253 151.698, 397.437 150.598, 391.218 153.663 M 231.618 217.112 C 214.793 221.062, 197.616 238.766, 197.616 252.157 C 197.615 262.305, 206.892 269.338, 216.919 266.793 C 221.448 265.643, 224.378 262.842, 227.958 256.241 C 231.637 249.457, 236.784 246.685, 244 247.605 C 257.324 249.302, 260.830 248.239, 265.750 241.010 C 269.815 235.038, 267.982 225.259, 261.999 221 C 256.016 216.739, 241.254 214.850, 231.618 217.112 M 0.300 234 C 0.300 237.025, 0.487 238.262, 0.716 236.750 C 0.945 235.238, 0.945 232.762, 0.716 231.250 C 0.487 229.738, 0.300 230.975, 0.300 234 M 130.105 264.583 C 127.137 265.381, 122.431 267.263, 119.645 268.767 C 108.639 274.708, 98.025 289.131, 97.839 298.399 C 97.667 306.947, 104.392 314, 112.714 314 C 119.759 314, 124.514 310.701, 128.077 303.341 C 131.835 295.579, 139.390 292.449, 148.329 294.952 C 154.182 296.591, 159.574 295.067, 163.970 290.530 C 166.888 287.520, 167.423 286.205, 167.741 281.261 C 168.150 274.875, 166.198 270.486, 161.610 267.480 C 155.072 263.196, 140.309 261.838, 130.105 264.583 M 255 305.668 C 250.671 307.449, 247.807 310.735, 244.488 317.727 C 235.523 336.614, 220.680 347.945, 200.996 350.926 C 193.324 352.088, 182.377 351.234, 176.554 349.020 C 171.796 347.211, 164.619 347.784, 160.898 350.270 C 151.547 356.517, 151.980 370.559, 161.699 376.251 C 172.241 382.426, 197.937 384.335, 214 380.137 C 229.682 376.039, 241.475 369.425, 253.365 358.061 C 261.344 350.434, 266.716 342.912, 271.744 332.324 C 277.137 320.968, 276.219 313.226, 268.824 307.715 C 266.126 305.704, 257.880 304.483, 255 305.668"
        stroke="none" fill="currentColor" fill-rule="evenodd" />
</svg>