<svg xmlns="http://www.w3.org/2000/svg" width="512" height="512" viewBox="0 0 512 512" version="1.1">
    <path d="" stroke="none" fill="currentColor" fill-rule="evenodd" />
    <path
        d="M 246.635 2.073 C 244.522 3.735, 244.008 4.973, 244.042 8.323 C 244.064 10.620, 248.928 35, 254.849 62.500 L 265.614 112.500 240.719 113 L 215.823 113.500 213.412 116.306 C 211.046 119.058, 211 119.471, 211 138.133 L 211 157.154 213.923 160.077 C 216.747 162.901, 217.171 163, 226.423 163 L 236 163 236.032 168.250 C 236.049 171.137, 237.131 195.775, 238.435 223 C 239.739 250.225, 240.674 272.638, 240.514 272.806 C 240.353 272.974, 237.584 272.447, 234.361 271.633 C 222.717 268.696, 213.657 268, 187.052 268 C 153.002 268, 142.922 269.359, 122 276.773 C 99.693 284.677, 75.095 303.152, 59.785 323.500 C 45.598 342.356, 35.403 368.103, 33.263 390.480 L 32.500 398.460 27.242 400.980 C 3.043 412.577, 1.396 445.862, 24.369 459.038 C 27.191 460.657, 30.288 461.985, 31.250 461.991 C 32.439 461.997, 33 462.787, 33 464.455 C 33 468.079, 37.262 479.178, 41.123 485.607 C 45.502 492.899, 55.266 501.831, 63.208 505.811 C 76.407 512.425, 61.913 512, 274.022 512 C 463.793 512, 466.654 511.971, 468.722 510.044 C 469.877 508.968, 471.072 506.831, 471.378 505.294 C 471.685 503.757, 475.349 427.575, 479.521 336 C 483.694 244.425, 487.329 168.037, 487.599 166.250 C 488.070 163.135, 488.279 163, 492.611 163 C 497.381 163, 500.700 161.715, 502.718 159.087 C 503.576 157.970, 503.946 151.815, 503.968 138.306 C 503.999 119.436, 503.959 119.064, 501.587 116.306 L 499.174 113.500 391.087 113.233 C 331.639 113.085, 283 112.806, 283 112.612 C 283 112.225, 261.358 10.939, 260.469 7.164 C 259.623 3.572, 255.490 0, 252.180 0 C 250.579 0, 248.084 0.933, 246.635 2.073 M 228 138 L 228 146 357.500 146 L 487 146 487 138 L 487 130 357.500 130 L 228 130 228 138 M 253.012 166.750 C 253.019 168.813, 254.142 193.900, 255.507 222.500 C 256.873 251.100, 257.992 275.506, 257.995 276.736 C 257.999 278.464, 259.368 279.662, 264.034 282.017 C 267.352 283.692, 272.935 286.818, 276.440 288.964 L 282.814 292.864 284.093 289.775 C 286.767 283.320, 294.938 272.249, 301.758 265.841 C 333.239 236.261, 381.803 236.210, 413.089 265.723 C 424.550 276.534, 431.225 287.330, 436.153 303.027 C 438.193 309.522, 438.493 312.462, 438.449 325.500 C 438.403 339.141, 438.146 341.270, 435.608 349 C 425.102 381.002, 399.325 401.996, 365.423 406.163 L 355.940 407.328 358.416 409.914 C 364.378 416.140, 367.324 428.811, 365.032 438.366 C 362.656 448.271, 352.008 460.048, 343.977 461.655 C 341.719 462.106, 341.202 462.948, 340.178 467.839 C 338.655 475.118, 334.896 483.129, 329.898 489.750 L 325.935 495 390.468 495 C 441.399 495, 455.011 494.737, 455.052 493.750 C 455.081 493.063, 458.574 418.363, 462.815 327.750 L 470.526 163 361.763 163 L 253 163 253.012 166.750 M 353.500 260.738 C 332.149 262.009, 311.912 274.767, 301.533 293.500 C 296.037 303.420, 296.029 303.312, 302.702 310.321 C 321.079 329.627, 333.509 353.113, 338.663 378.273 L 340.460 387.047 344.480 388.146 C 349.998 389.655, 365.330 389.611, 372 388.068 C 375.025 387.368, 381.325 384.985, 386 382.771 C 393.027 379.444, 395.975 377.253, 403.015 370.124 C 415.413 357.568, 420.770 345.770, 421.728 328.912 C 422.420 316.745, 420.371 306.988, 414.759 295.713 C 407.548 281.226, 392.093 268.051, 377 263.522 C 370.927 261.700, 359.696 260.369, 353.500 260.738 M 155.500 285.685 C 147.820 286.861, 134.866 290.136, 128.687 292.464 C 89.011 307.410, 59.343 342.342, 51.497 383.352 C 50.674 387.655, 50 392.711, 50 394.588 L 50 398 187 398 L 324 398 324 395.110 C 324 390.418, 321.123 376.632, 318.408 368.315 C 308.471 337.875, 283.489 309.680, 254.883 296.623 C 233.680 286.945, 226.636 285.742, 189.500 285.461 C 172.450 285.332, 157.150 285.433, 155.500 285.685 M 195 316.460 L 195 325 203.540 325 L 212.081 325 211.790 316.750 L 211.500 308.500 203.250 308.210 L 195 307.919 195 316.460 M 105.210 325.250 L 105.500 333.500 113.750 333.790 L 122 334.081 122 325.540 L 122 317 113.460 317 L 104.919 317 105.210 325.250 M 97 357.500 L 97 366 105.500 366 L 114 366 114 357.500 L 114 349 105.500 349 L 97 349 97 357.500 M 243 357.500 L 243 366 251.500 366 L 260 366 260 357.500 L 260 349 251.500 349 L 243 349 243 357.500 M 170 365.500 L 170 374 178.500 374 L 187 374 187 365.500 L 187 357 178.500 357 L 170 357 170 365.500 M 32.859 417.152 C 27.533 420.248, 24.644 425.944, 25.242 432.171 C 25.787 437.839, 28.187 441.604, 33.105 444.500 C 36.459 446.476, 38.298 446.500, 187 446.500 C 327.949 446.500, 337.701 446.390, 340.671 444.765 C 345.960 441.872, 348.500 437.348, 348.500 430.823 C 348.500 424.690, 346.815 421.444, 341.615 417.562 C 338.858 415.503, 338.625 415.500, 187.677 415.268 L 36.500 415.035 32.859 417.152 M 51.482 467.950 C 55.792 480.165, 64.053 488.402, 76.500 492.894 L 82.500 495.059 188.552 494.780 L 294.605 494.500 302.237 490.728 C 307.248 488.251, 311.250 485.387, 313.890 482.387 C 318.201 477.491, 323 468.754, 323 465.804 C 323 464.074, 317.382 464, 186.544 464 L 50.089 464 51.482 467.950"
        stroke="none" fill="currentColor" fill-rule="evenodd" />
</svg>