<svg xmlns="http://www.w3.org/2000/svg" width="512" height="512" viewBox="0 0 512 512" version="1.1">
    <path d="" stroke="none" fill="currentColor" fill-rule="evenodd" />
    <path
        d="M 153 0.687 C 147.645 1.574, 137.196 5.331, 130.884 8.639 C 113.521 17.739, 100.653 33.215, 93.999 53 C 90.857 62.340, 90.141 80.014, 92.474 90.610 C 94.246 98.653, 99.230 110.706, 102.941 115.916 C 104.073 117.507, 105 119.077, 105 119.404 C 105 119.732, 89.813 120.005, 71.250 120.011 C 45.255 120.019, 36.443 120.342, 32.901 121.418 C 17.133 126.204, 5.361 138.271, 1.092 154.026 C 0.236 157.185, -0.039 165.814, 0.183 182.583 L 0.500 206.613 4.218 214.132 C 8.668 223.129, 15.658 230.473, 24.008 234.923 L 30 238.117 30.011 356.309 C 30.020 454.569, 30.257 475.276, 31.418 479.099 C 36.121 494.596, 47.404 505.879, 62.901 510.582 C 69.776 512.669, 442.224 512.669, 449.099 510.582 C 464.596 505.879, 475.879 494.596, 480.582 479.099 C 481.743 475.276, 481.980 454.569, 481.989 356.309 L 482 238.117 487.992 234.923 C 491.288 233.167, 496.240 229.474, 498.997 226.717 C 503.903 221.811, 511 209.517, 511 205.925 C 511 204.931, 511.450 203.840, 512 203.500 C 512.622 203.116, 513 193.803, 513 178.882 C 513 164.554, 512.630 155.111, 512.081 155.450 C 511.576 155.762, 510.845 154.551, 510.457 152.759 C 508.332 142.943, 498.136 130.132, 488.599 125.298 C 478.580 120.219, 476.804 120.022, 440.750 120.011 C 422.188 120.005, 407 119.732, 407 119.404 C 407 119.077, 407.927 117.507, 409.059 115.916 C 412.770 110.706, 417.754 98.653, 419.526 90.610 C 421.859 80.014, 421.143 62.340, 418.001 53 C 409.775 28.543, 392.481 11.247, 368 2.994 C 354.353 -1.607, 329.597 -0.614, 316.348 5.065 C 304.544 10.125, 292.847 20.319, 284.293 33 C 279.260 40.462, 269.866 59.553, 263.011 76.250 C 259.454 84.912, 256.300 92, 256 92 C 255.700 92, 252.546 84.912, 248.989 76.250 C 242.134 59.553, 232.740 40.462, 227.707 33 C 212.256 10.093, 192.824 -0.221, 165.792 0.136 C 160.131 0.211, 154.375 0.459, 153 0.687 M 159.807 30.996 C 156.676 31.396, 150.826 33.303, 146.807 35.233 C 124.604 45.895, 115.541 71.932, 126.262 94.256 C 132.728 107.718, 145.812 117.139, 160.710 119.059 C 168.026 120.002, 233 120.358, 233 119.455 C 233 118.411, 218.678 83.423, 213.560 71.963 C 201.672 45.344, 190.629 33.458, 175.958 31.493 C 167.299 30.333, 165.443 30.276, 159.807 30.996 M 338.291 31.101 C 321.548 33.174, 310.877 44.116, 298.440 71.963 C 293.322 83.423, 279 118.411, 279 119.455 C 279 120.358, 343.974 120.002, 351.290 119.059 C 375.745 115.907, 392.844 93.749, 389.925 68.994 C 388.382 55.912, 378.633 41.899, 367 36.043 C 357.072 31.046, 349.401 29.725, 338.291 31.101 M 41.676 150.723 C 40.124 150.956, 37.123 152.877, 35.009 154.991 C 30.256 159.744, 29.625 163.595, 30.142 184.708 C 30.538 200.879, 31.334 203.286, 37.724 207.618 C 40.374 209.415, 44.031 209.513, 118.250 209.779 L 196 210.059 196 180.029 L 196 150 120.250 150.150 C 78.587 150.232, 43.229 150.490, 41.676 150.723 M 226 316 L 226 482 256 482 L 286 482 286 316 L 286 150 256 150 L 226 150 226 316 M 316 180 L 316 210.059 393.750 209.779 C 467.969 209.513, 471.626 209.415, 474.276 207.618 C 475.803 206.583, 478.053 204.333, 479.276 202.618 C 481.392 199.651, 481.500 198.554, 481.500 180 C 481.500 161.446, 481.392 160.349, 479.276 157.382 C 478.053 155.667, 475.803 153.417, 474.276 152.382 C 471.626 150.585, 467.969 150.487, 393.750 150.221 L 316 149.941 316 180 M 0.432 180 C 0.432 193.475, 0.574 198.988, 0.747 192.250 C 0.920 185.512, 0.920 174.488, 0.747 167.750 C 0.574 161.012, 0.432 166.525, 0.432 180 M 60.230 355.750 L 60.500 471.500 62.724 474.618 C 63.947 476.333, 66.197 478.583, 67.724 479.618 C 70.357 481.403, 73.725 481.515, 133.250 481.786 L 196 482.071 196 361.036 L 196 240 127.980 240 L 59.959 240 60.230 355.750 M 316 361.036 L 316 482.071 378.750 481.786 C 438.275 481.515, 441.643 481.403, 444.276 479.618 C 445.803 478.583, 448.053 476.333, 449.276 474.618 L 451.500 471.500 451.770 355.750 L 452.041 240 384.020 240 L 316 240 316 361.036"
        stroke="none" fill="currentColor" fill-rule="evenodd" />
</svg>