<svg xmlns="http://www.w3.org/2000/svg" width="512" height="512" viewBox="0 0 512 512" version="1.1"><path d="" stroke="none" fill="currentColor" fill-rule="evenodd"/><path d="M 69.994 12.874 C 63.031 15.159, 56.780 20.407, 53.678 26.572 C 52.549 28.816, 50.970 29.987, 47.816 30.918 C 36.253 34.332, 26.175 43.187, 20.701 54.741 L 17.500 61.500 17.220 122.250 L 16.941 183 8.348 183 L -0.244 183 0.284 201.250 C 0.945 224.044, 3.194 233.555, 12.091 251.180 C 26.396 279.519, 53.354 302.397, 84.302 312.464 L 93 315.294 93.008 324.397 C 93.026 344.325, 95.571 355.772, 101.570 362.900 C 104.541 366.432, 112.979 370.973, 116.599 370.990 C 118.612 371, 118.725 371.632, 119.335 386.250 C 120.026 402.792, 121.567 412.189, 125.550 424.150 C 135.802 454.933, 160.347 481.437, 189.206 492.887 C 205.667 499.418, 225.688 501.548, 242.612 498.570 C 285.733 490.981, 318.901 458.227, 330.276 412 C 332.303 403.762, 332.386 400.480, 332.965 305.500 C 333.522 214.113, 333.686 207.129, 335.394 202.002 C 343.110 178.836, 360.278 163.016, 381.152 159.837 C 403.656 156.410, 425.857 169.017, 436.930 191.510 C 441.352 200.491, 442.968 208.769, 442.985 222.513 L 443 234.527 437.750 235.756 C 424.118 238.948, 408.364 250.390, 401.179 262.318 C 379.740 297.911, 399.208 343.568, 439.662 352.568 C 463.805 357.939, 489.138 347.326, 502.863 326.091 C 508.816 316.880, 511.129 309.278, 511.712 297 C 512.458 281.312, 508.890 269.585, 499.659 257.384 C 491.859 247.074, 478.204 238.179, 466.599 235.848 L 461.237 234.772 460.731 219.636 C 460.162 202.609, 458.333 194.486, 452.412 182.688 C 438.312 154.593, 409.208 138.123, 380.429 141.953 C 363.228 144.242, 351.551 150.209, 338.471 163.397 C 331.003 170.926, 328.622 174.142, 324.702 182 C 322.096 187.225, 318.977 195.100, 317.773 199.500 C 315.610 207.401, 315.575 208.717, 314.977 305.500 C 314.304 414.373, 314.813 406.281, 307.500 424.450 C 295.971 453.095, 271.111 474.596, 242.792 480.416 C 197.455 489.734, 153.152 459.727, 140.300 411 C 138.359 403.640, 137.675 398.065, 137.263 386.250 L 136.732 371 139.116 370.990 C 142.983 370.974, 151.360 366.550, 154.430 362.900 C 160.429 355.772, 162.974 344.325, 162.992 324.397 L 163 315.294 171.698 312.464 C 202.546 302.430, 229.650 279.427, 243.909 251.180 C 252.806 233.555, 255.055 224.044, 255.716 201.250 L 256.244 183 247.622 183 L 239 183 238.985 125.750 C 238.973 77.915, 238.719 67.433, 237.442 62.014 C 234.031 47.542, 223.406 36.043, 209.204 31.452 C 204.835 30.039, 203.572 29.081, 201.988 25.977 C 197.522 17.222, 185.863 11.143, 176.110 12.485 C 157.485 15.046, 147.818 35.821, 157.754 51.932 C 161.083 57.329, 169.174 62.604, 175.602 63.568 C 184.765 64.942, 195.585 59.895, 200.872 51.782 C 203.020 48.484, 203.490 48.236, 205.867 49.140 C 210.354 50.845, 214.840 54.872, 217.728 59.784 L 220.500 64.500 220.780 123.750 L 221.061 183 212.637 183 L 204.214 183 203.766 198.250 C 203.381 211.387, 202.960 214.517, 200.730 220.835 C 197.035 231.306, 192.516 238.472, 184.500 246.579 C 170.355 260.883, 153.263 267.505, 131 267.307 C 110.687 267.126, 93.128 260.067, 80.075 246.833 C 71.970 238.615, 67.662 231.611, 63.774 220.332 C 61.166 212.766, 60.709 209.788, 60.242 197.320 L 59.706 183 47.353 183 L 35 183 35 125.366 C 35 84.520, 35.338 66.604, 36.161 63.858 C 37.677 58.797, 43.169 52.464, 48.324 49.835 C 52.246 47.834, 52.480 47.821, 53.466 49.540 C 55.755 53.529, 61.593 59.266, 65.432 61.299 C 71.169 64.337, 82.831 64.337, 88.568 61.299 C 97.996 56.306, 103.664 46.257, 102.748 36.156 C 101.894 26.744, 96.754 19.016, 88.529 14.780 C 84.219 12.559, 74.118 11.521, 69.994 12.874 M 71.174 32.314 C 68.193 35.488, 68.316 40.407, 71.455 43.545 C 77.470 49.560, 87.254 42.857, 83.984 34.962 C 81.743 29.550, 75.067 28.170, 71.174 32.314 M 174.881 31.007 C 173.991 31.527, 172.699 33.313, 172.010 34.976 C 168.745 42.858, 178.538 49.553, 184.545 43.545 C 191.163 36.928, 182.961 26.286, 174.881 31.007 M 18.144 208.869 C 18.982 219.358, 20.026 223.780, 24.196 234.500 C 35.163 262.691, 58.229 284.393, 88.953 295.427 C 98.325 298.793, 116.829 302, 126.876 302 C 174.466 302, 215.857 275.371, 231.796 234.500 C 235.971 223.794, 237.017 219.369, 237.856 208.869 L 238.565 200 230.431 200 L 222.296 200 221.675 207.750 C 219.366 236.533, 200.790 263.098, 174 275.928 C 160.111 282.579, 148.042 285.252, 132 285.229 C 120.750 285.214, 116.855 284.781, 108.628 282.632 C 70.918 272.782, 46.703 244.637, 42.480 205.750 L 41.856 200 29.646 200 L 17.435 200 18.144 208.869 M 440.500 253.402 C 429.338 256.942, 419.445 265.279, 414.572 275.254 C 399.595 305.912, 425.579 340.938, 459.042 335.200 C 479.680 331.660, 494.019 314.786, 493.989 294.072 C 493.962 275.003, 483.300 260.124, 465.200 253.897 C 458.779 251.688, 446.671 251.445, 440.500 253.402 M 443.591 269.573 C 431.490 274.007, 424.473 286.326, 427.030 298.644 C 431.146 318.470, 454.809 326.435, 469.464 312.927 C 480.275 302.961, 480.831 286.404, 470.704 275.991 C 463.768 268.860, 452.693 266.238, 443.591 269.573 M 447.881 287.007 C 446.991 287.527, 445.699 289.313, 445.010 290.976 C 441.745 298.858, 451.538 305.553, 457.545 299.545 C 464.163 292.928, 455.961 282.286, 447.881 287.007 M 111.251 331.980 C 112.051 352.032, 112.822 353, 128 353 C 143.178 353, 143.949 352.032, 144.749 331.980 L 145.249 319.459 128 319.459 L 110.751 319.459 111.251 331.980" stroke="none" fill="currentColor" fill-rule="evenodd"/></svg>