<svg xmlns="http://www.w3.org/2000/svg" width="512" height="512" viewBox="0 0 512 512" version="1.1">
    <path d="" stroke="none" fill="currentColor" fill-rule="evenodd" />
    <path
        d="M 314.174 18.314 C 312.095 20.527, 312 21.484, 312 40.140 C 312 59.242, 312.049 59.697, 314.314 61.826 C 315.587 63.022, 317.387 64, 318.314 64 C 319.816 64, 320 65.545, 320 78.122 C 320 92.013, 319.967 92.221, 318.010 90.872 C 316.916 90.117, 303.202 80.135, 287.535 68.688 C 261.719 49.827, 258.720 47.906, 255.538 48.188 C 252.692 48.441, 232.251 62.953, 147.620 124.804 C 90.195 166.772, 42.489 201.907, 41.606 202.883 C 40.723 203.859, 40 206.263, 40 208.225 C 40 212.447, 40.804 213.229, 59.272 226.970 L 72 236.439 72 310.080 L 72 383.721 67.078 384.304 C 53.651 385.895, 41.680 398.012, 40.297 411.414 C 39.777 416.450, 39.654 416.619, 35.147 418.483 C 28.581 421.199, 22.177 427.493, 18.850 434.500 C 11.502 449.978, 17.925 468.539, 33.500 476.836 L 38.500 479.500 256 479.500 L 473.500 479.500 478.500 476.836 C 494.075 468.539, 500.498 449.978, 493.150 434.500 C 489.823 427.493, 483.419 421.199, 476.853 418.483 C 472.346 416.619, 472.223 416.450, 471.703 411.414 C 470.320 398.012, 458.349 385.895, 444.922 384.304 L 440 383.721 440 310.080 L 440 236.439 452.728 226.970 C 471.318 213.138, 472 212.470, 472 208.083 C 472 205.322, 471.297 203.722, 469.250 201.822 C 467.738 200.419, 451.538 188.367, 433.250 175.041 L 400 150.813 400 107.406 C 400 66.048, 400.086 64, 401.826 64 C 402.830 64, 404.630 62.958, 405.826 61.686 C 407.905 59.473, 408 58.516, 408 39.860 C 408 20.758, 407.951 20.303, 405.686 18.174 C 403.382 16.011, 403.158 16, 359.860 16 L 316.349 16 314.174 18.314 M 328 40 L 328 48 360 48 L 392 48 392 40 L 392 32 360 32 L 328 32 328 40 M 336.229 84.201 L 336.500 104.402 356 118.683 C 366.725 126.537, 377.413 134.349, 379.750 136.044 L 384 139.124 384 101.562 L 384 64 359.979 64 L 335.959 64 336.229 84.201 M 159.357 137.041 C 106.636 175.564, 63.370 207.454, 63.211 207.908 C 62.825 209.012, 79.147 221.138, 80.538 220.780 C 81.138 220.626, 120.133 192.488, 167.194 158.250 C 238.577 106.318, 253.296 96, 256 96 C 258.704 96, 273.423 106.318, 344.806 158.250 C 391.867 192.488, 430.862 220.626, 431.462 220.780 C 432.863 221.140, 449.172 209.009, 448.789 207.892 C 448.421 206.820, 257.131 67, 256.032 67 C 255.582 67, 212.078 98.518, 159.357 137.041 M 171.257 175.818 L 88.014 236.500 88.007 350.250 L 88 464 176 464 L 264 464 264 370.174 L 264 276.349 266.314 274.174 L 268.629 272 328.140 272 L 387.651 272 389.826 274.314 L 392 276.629 392 370.314 L 392 464 408 464 L 424 464 423.994 350.250 L 423.988 236.500 340.800 176 C 295.046 142.725, 256.912 115.418, 256.056 115.318 C 255.200 115.218, 217.041 142.443, 171.257 175.818 M 122.174 274.314 L 120 276.629 120 336.140 L 120 395.651 122.314 397.826 L 124.629 400 176.140 400 L 227.651 400 229.826 397.686 L 232 395.371 232 335.860 L 232 276.349 229.686 274.174 L 227.371 272 175.860 272 L 124.349 272 122.174 274.314 M 136 308 L 136 328 152 328 L 168 328 168 308 L 168 288 152 288 L 136 288 136 308 M 184 308 L 184 328 200 328 L 216 328 216 308 L 216 288 200 288 L 184 288 184 308 M 280 376 L 280 464 328 464 L 376 464 376 376 L 376 288 328 288 L 280 288 280 376 M 136 364 L 136 384 152 384 L 168 384 168 364 L 168 344 152 344 L 136 344 136 364 M 184 364 L 184 384 200 384 L 216 384 216 364 L 216 344 200 344 L 184 344 184 364 M 298.174 362.314 C 293.208 367.601, 296.870 376, 304.140 376 C 308.756 376, 312 372.640, 312 367.860 C 312 360.760, 303.019 357.157, 298.174 362.314 M 67.594 401.041 C 63.527 402.258, 58.161 407.758, 57.024 411.875 C 56.402 414.128, 56.424 416.930, 57.087 419.889 C 57.648 422.391, 57.851 425.459, 57.537 426.707 C 56.810 429.603, 53.014 432.094, 48.795 432.443 C 46.983 432.593, 44.714 432.779, 43.753 432.858 C 42.792 432.936, 40.209 434.623, 38.012 436.608 C 30.838 443.089, 30.542 452.256, 37.296 458.802 C 41.804 463.172, 45.381 464, 59.743 464 L 72 464 72 432 C 72 414.400, 71.662 400.039, 71.250 400.086 C 70.838 400.133, 69.192 400.563, 67.594 401.041 M 440 431.987 L 440 464.188 454.250 463.844 C 466.336 463.552, 469.004 463.196, 471.819 461.500 C 481.741 455.521, 481.910 440.486, 472.120 434.723 C 470.459 433.746, 466.970 432.731, 464.366 432.467 C 455.628 431.583, 453.058 428.164, 454.913 419.889 C 456.330 413.567, 454.858 409.008, 449.977 404.598 C 447.787 402.619, 445.357 401, 444.579 401 C 443.800 401, 442.452 400.727, 441.582 400.393 C 440.160 399.847, 440 403.035, 440 431.987"
        stroke="none" fill="currentColor" fill-rule="evenodd" />
</svg>