<svg xmlns="http://www.w3.org/2000/svg" width="512" height="512" viewBox="0 0 512 512" version="1.1">
    <path d="" stroke="none" fill="currentColor" fill-rule="evenodd" />
    <path
        d="M 271.500 3.130 C 266.550 4.224, 259.125 5.505, 255 5.976 C 246.391 6.960, 239.440 9.090, 233 12.718 C 226.320 16.481, 105.980 136.649, 100.528 145 C 94.087 154.866, 91.821 161.828, 91.249 173.511 C 90.967 179.266, 91.249 185.884, 91.912 189.076 C 93.238 195.462, 97.548 205.029, 102.041 211.560 L 105.143 216.068 95.735 227.784 C 59.880 272.437, 30.495 321.402, 5.607 377.972 C -0.533 391.928, -0.431 396.608, 6.064 398.873 C 8.419 399.694, 9.936 399.634, 12.335 398.628 C 15.087 397.474, 16.207 395.680, 20.915 384.900 C 28.248 368.105, 46.279 332.286, 55.073 317.042 C 64.549 300.616, 77.776 279.955, 87.932 265.715 C 96.788 253.299, 116.135 228.653, 117.865 227.584 C 118.448 227.223, 121.195 228.079, 123.970 229.485 C 142.249 238.747, 171.405 238.342, 192.642 228.530 C 212.121 219.530, 225.131 205.466, 245.153 171.763 C 256.382 152.863, 270 121.988, 270 115.431 C 270 109.723, 261.440 105.833, 256.735 109.403 C 255.765 110.139, 252.699 116.537, 249.922 123.621 C 236.342 158.261, 211.809 196.467, 196.289 207.145 C 183.849 215.704, 172.095 219.358, 157 219.358 C 139.564 219.358, 128.255 215.192, 118.935 205.338 C 109.617 195.485, 105.711 182.053, 108.406 169.127 C 109.198 165.329, 110.825 160.260, 112.021 157.861 C 115.262 151.361, 236.735 29.774, 243.500 26.258 C 247.312 24.276, 250.432 23.552, 256.633 23.210 C 266.835 22.647, 272.794 24.474, 280.645 30.571 C 287.291 35.731, 290.854 36.237, 294.545 32.545 C 298.151 28.940, 297.900 23.746, 293.929 19.775 L 290.858 16.704 300.762 17.386 C 324.751 19.039, 345.352 27.700, 361.295 42.837 C 364.576 45.951, 372.873 55.700, 379.732 64.500 C 386.592 73.300, 393.171 81.047, 394.352 81.715 C 395.830 82.550, 402.663 82.940, 416.250 82.965 L 436 83 436 89.032 C 436 98.645, 439.630 105.226, 447 108.975 C 448.925 109.954, 460.568 113.848, 472.874 117.628 L 495.249 124.500 494.730 132.082 C 494.405 136.846, 493.456 141.145, 492.178 143.650 C 489.496 148.909, 483.059 154.620, 478.312 155.953 C 476.215 156.542, 445.042 161.551, 409.038 167.084 C 373.034 172.617, 343.334 177.279, 343.038 177.444 C 342.742 177.610, 339.223 177.343, 335.218 176.852 C 321.916 175.220, 309.296 169.173, 297.074 158.573 C 289.581 152.074, 285.625 151.284, 281.455 155.455 C 277.253 159.656, 278.071 163.487, 284.499 169.713 C 294.431 179.333, 313.554 190.080, 323.658 191.719 C 325.523 192.022, 327.265 192.620, 327.529 193.048 C 327.794 193.476, 325.591 197.352, 322.634 201.663 C 319.678 205.973, 315.807 212.088, 314.034 215.250 C 312.260 218.412, 310.728 221, 310.628 221 C 310.529 221, 310.618 219.212, 310.826 217.027 C 311.342 211.619, 307.988 204.847, 303.632 202.501 C 301.229 201.207, 299.006 200.852, 295.664 201.229 C 291.576 201.689, 289.639 202.915, 279.264 211.610 C 263.797 224.571, 244.719 243.180, 234.780 255 C 184.712 314.541, 159.840 391.988, 166.054 469 C 166.787 478.080, 166.733 484.852, 165.859 493.752 C 164.655 506.001, 164.656 506.005, 167.002 508.502 C 171.801 513.611, 179.426 511.001, 181.612 503.500 C 182.093 501.850, 182.505 482.275, 182.529 460 C 182.573 417.199, 183.076 410.685, 188.166 387 C 199.337 335.020, 225.033 287.537, 262.590 249.469 C 271.506 240.433, 292.877 221.447, 293.359 222.135 C 293.499 222.336, 293.114 233.300, 292.503 246.500 C 291.230 274.021, 290.485 276.826, 282.203 285.328 C 276.617 291.064, 273.871 292.629, 266.800 294.109 C 259.943 295.545, 257 298.214, 257 303 C 257 310.801, 264.117 312.987, 276.282 308.922 C 287.976 305.015, 297.195 297.271, 302.265 287.096 C 303.559 284.498, 305.042 282.497, 305.559 282.650 C 306.077 282.802, 316.625 283.624, 329 284.476 C 341.375 285.329, 353.750 286.628, 356.500 287.363 C 371.698 291.425, 384.513 303.065, 390.035 317.823 C 391.174 320.866, 392.925 329.264, 393.927 336.484 C 395.808 350.042, 397.138 353.943, 401.155 357.683 C 404.926 361.195, 408.617 362.070, 423.194 362.909 C 435.552 363.620, 437.342 363.961, 440.818 366.261 C 445.467 369.337, 448 374.248, 448 380.182 C 448 385.026, 439.250 415.651, 436.144 421.679 C 432.626 428.506, 424.223 434.790, 416.500 436.369 C 414.850 436.707, 398.581 438.570, 380.346 440.510 C 362.112 442.450, 345.687 444.555, 343.846 445.189 C 331.756 449.350, 323.623 462.331, 325.454 474.543 C 326.122 478.994, 338.756 505.913, 341.743 509.250 C 345.854 513.842, 355.333 509.541, 355.333 503.084 C 355.333 501.472, 352.333 494.045, 348.667 486.580 C 345 479.116, 342.002 471.994, 342.004 470.754 C 342.010 466.703, 345.596 462.193, 349.702 461.071 C 351.791 460.500, 367 458.663, 383.500 456.989 C 400 455.314, 415.975 453.507, 419 452.972 C 431.853 450.699, 445.755 440.339, 451.370 428.849 C 455.749 419.888, 464.138 390.397, 464.697 382 C 465.334 372.425, 462.823 365.244, 456.304 357.993 C 448.448 349.256, 439.012 346.024, 421.309 346.008 C 416.540 346.003, 412.840 345.550, 412.452 344.922 C 412.085 344.329, 411.135 338.817, 410.340 332.672 C 407.043 307.182, 396.476 289.561, 377.659 278.179 C 366.975 271.716, 359.634 269.960, 336.500 268.331 C 309.253 266.413, 309 266.373, 309 263.941 C 309 262.859, 309.428 261.191, 309.951 260.236 C 310.475 259.281, 313.813 252.425, 317.369 245 C 320.926 237.575, 326.381 227.231, 329.493 222.014 C 334.993 212.792, 346.737 196.293, 349.339 194.134 C 350.048 193.545, 380.075 188.521, 416.064 182.970 C 473.819 174.061, 482.231 172.539, 487.723 170.003 C 496.147 166.114, 503.265 159.238, 507.259 151.130 L 510.500 144.550 510.806 114.649 L 511.111 84.747 508.531 79.473 C 507.112 76.573, 504.394 73.012, 502.491 71.561 C 495.314 66.087, 494.438 66, 446.492 66 L 402.235 66 389.868 50.285 C 371.721 27.227, 358.697 16.815, 337.212 8.188 C 324.034 2.897, 312.995 1.017, 295.500 1.083 C 284.382 1.126, 278.171 1.656, 271.500 3.130 M 324.400 69.400 C 321.400 72.400, 321 73.415, 321 78.032 C 321 82.736, 321.360 83.604, 324.571 86.632 C 327.651 89.536, 328.835 90, 333.171 90 C 337.557 90, 338.635 89.565, 341.600 86.600 C 344.595 83.605, 345 82.580, 345 78 C 345 70.457, 340.543 66, 333 66 C 328.420 66, 327.395 66.405, 324.400 69.400 M 453 87.878 C 453 90.594, 453.554 93.186, 454.250 93.729 C 455.302 94.548, 465.360 97.819, 490.843 105.629 L 495.186 106.960 494.843 96.890 C 494.357 82.624, 494.992 83, 471.389 83 L 453 83 453 87.878 M 334.400 330.400 C 331.400 333.400, 331 334.415, 331 339.032 C 331 343.736, 331.360 344.604, 334.571 347.632 C 337.651 350.536, 338.835 351, 343.171 351 C 347.557 351, 348.635 350.565, 351.600 347.600 C 354.595 344.605, 355 343.580, 355 339 C 355 334.420, 354.595 333.395, 351.600 330.400 C 348.605 327.405, 347.580 327, 343 327 C 338.420 327, 337.395 327.405, 334.400 330.400"
        stroke="none" fill="currentColor" fill-rule="evenodd" />
</svg>