<svg xmlns="http://www.w3.org/2000/svg" width="512" height="512" viewBox="0 0 512 512" version="1.1">
    <path d="" stroke="none" fill="currentColor" fill-rule="evenodd" />
    <path
        d="M 229.928 82.474 C 187.681 89.335, 149.385 110.460, 123.478 141.195 C 107.478 160.177, 104.807 166.493, 109.186 174.992 C 112.335 181.104, 116.907 184.001, 123.398 183.996 C 130.484 183.991, 133.477 181.840, 141.797 170.770 C 181.697 117.685, 251.548 99.152, 312.769 125.408 C 354.040 143.108, 385.258 181.173, 394.977 225.647 L 396.814 234.054 392.157 230.469 C 380.812 221.735, 378.917 220.824, 372.935 221.227 C 366.521 221.658, 361.881 224.417, 359.309 229.329 C 357.034 233.673, 357.156 240.871, 359.576 245.013 C 361.775 248.779, 399.646 278.618, 407.217 282.550 C 412.426 285.256, 419.215 285.770, 423.563 283.789 C 425.939 282.707, 459.810 240.047, 462.844 234.316 C 464.830 230.564, 464.268 222.689, 461.750 218.990 C 457.911 213.350, 454.549 211.500, 448.133 211.500 C 441.278 211.500, 438.484 213.089, 433.244 219.970 C 429.206 225.272, 428 226.016, 428 223.205 C 428 216.750, 419.214 190.451, 412.741 177.531 C 400.575 153.249, 379.571 128.862, 356.960 112.766 C 338.534 99.648, 312.785 88.651, 289.470 83.941 C 275.434 81.105, 243.241 80.312, 229.928 82.474 M 88.200 228.243 C 86.095 229.257, 51.844 272.633, 49.160 277.684 C 47.170 281.431, 47.730 289.308, 50.250 293.010 C 54.089 298.650, 57.451 300.500, 63.867 300.500 C 70.722 300.500, 73.516 298.911, 78.756 292.030 C 82.794 286.728, 84 285.984, 84 288.795 C 84 295.250, 92.786 321.549, 99.259 334.469 C 111.425 358.751, 132.429 383.138, 155.040 399.234 C 173.607 412.452, 199.238 423.359, 223.074 428.186 C 233.057 430.208, 237.341 430.495, 257 430.461 C 276.524 430.427, 280.889 430.122, 290 428.157 C 335.529 418.336, 373.994 393.289, 399.257 357.013 C 405.283 348.360, 406.150 343.483, 402.814 337.008 C 399.665 330.896, 395.093 327.999, 388.602 328.004 C 381.516 328.009, 378.523 330.160, 370.203 341.230 C 357.574 358.033, 338.690 374.033, 320.788 383.098 C 288.690 399.352, 251.325 402.834, 216.500 392.816 C 166.679 378.483, 128.144 337.241, 117.023 286.353 L 115.186 277.946 119.843 281.531 C 131.188 290.265, 133.083 291.176, 139.065 290.773 C 145.479 290.342, 150.119 287.583, 152.691 282.671 C 154.966 278.327, 154.844 271.129, 152.424 266.987 C 150.063 262.944, 111.763 232.929, 104.500 229.429 C 99.124 226.839, 92.168 226.332, 88.200 228.243"
        stroke="none" fill="currentColor" fill-rule="evenodd" />
</svg>