<svg xmlns="http://www.w3.org/2000/svg" width="512" height="512" viewBox="0 0 512 512" version="1.1">
    <path d="" stroke="none" fill="currentColor" fill-rule="evenodd" />
    <path
        d="M 156.147 5.539 C 115.550 11.336, 80.369 28.778, 52.021 57.164 C 18.497 90.732, 0 135.790, 0 183.885 C 0 244.371, 30.344 300.450, 81 333.582 C 86.225 336.999, 93.537 341.288, 97.250 343.112 C 100.963 344.937, 104 346.700, 104 347.030 C 104 347.361, 102.088 348.692, 99.750 349.989 C 85.354 357.973, 71.224 368.773, 49.765 388.191 C 29.297 406.712, 26.625 410.557, 26.625 421.482 C 26.625 431.411, 30.090 436.526, 44.083 447.252 C 62.068 461.040, 77.063 471.550, 86.656 477.091 C 114.339 493.084, 147.731 503.707, 180.424 506.925 C 194.193 508.280, 231.025 508.317, 245.500 506.990 C 288.832 503.018, 330.242 486.837, 365.623 460.053 C 370.942 456.027, 373.183 455.004, 378.768 454.054 C 401.890 450.119, 427.044 439.353, 445.707 425.404 C 500.370 384.546, 523.664 318.312, 506.499 252.547 C 495.090 208.837, 464.894 171.449, 423.670 149.991 C 405.893 140.738, 385.419 134.855, 363.827 132.795 L 351.154 131.586 347.445 121.543 C 325.101 61.044, 272.120 17.208, 208.328 6.438 C 195.135 4.211, 168.644 3.755, 156.147 5.539 M 177 26.280 C 177 34.043, 179.955 54.610, 182.440 64.136 C 188.426 87.088, 200.858 111.350, 214.395 126.500 L 218.863 131.500 252.978 97.500 L 287.094 63.500 282.797 59.720 C 271.791 50.037, 253.040 39.004, 236.574 32.522 C 222.247 26.882, 197.981 22.057, 183.750 22.018 L 177 22 177 26.280 M 146.500 25.470 C 120.589 30.979, 97.927 41.663, 77.754 57.881 C 74.593 60.421, 72.006 62.727, 72.004 63.003 C 72.002 63.280, 96.191 87.695, 125.759 117.259 L 179.517 171.010 192.716 157.755 L 205.914 144.500 200.895 138.500 C 183.196 117.344, 168.658 87.141, 163.110 60 C 162.041 54.775, 160.599 44.313, 159.905 36.750 C 159.210 29.188, 158.385 23.029, 158.071 23.065 C 157.757 23.101, 152.550 24.183, 146.500 25.470 M 53.070 82.750 C 41.576 97.167, 31.211 116.361, 25.663 133.500 C 23.210 141.077, 18.576 161.915, 19.206 162.534 C 19.368 162.693, 24.900 163.336, 31.500 163.964 C 71.479 167.763, 103.141 180.134, 131.858 203.175 L 140.424 210.048 153.212 197.288 C 160.245 190.271, 166 184.071, 166 183.511 C 166 182.503, 59.975 76, 58.972 76 C 58.686 76, 56.030 79.037, 53.070 82.750 M 265.340 110.203 L 231.180 144.500 236.789 149 C 242.601 153.663, 254.560 162, 255.437 162 C 255.713 162, 258.989 160.031, 262.719 157.625 C 272.906 151.053, 287.001 144.277, 298.356 140.493 C 308.094 137.249, 326.545 133, 330.899 133 C 332.938 133, 332.949 132.907, 331.369 128.750 C 325.034 112.073, 312.961 91.207, 303.280 80.203 L 299.500 75.906 265.340 110.203 M 330.500 151.097 C 327.200 151.566, 321.551 152.663, 317.947 153.534 C 312.241 154.914, 311.249 155.501, 310.279 158.073 C 309.168 161.015, 309.200 161.051, 319.082 168.013 C 324.537 171.856, 333.525 178.188, 339.057 182.085 C 345.247 186.447, 349.703 188.944, 350.648 188.581 C 351.998 188.063, 387.149 163.869, 389.351 161.942 C 389.819 161.533, 389.905 159.845, 389.542 158.192 C 388.938 155.442, 388.313 155.051, 382.191 153.586 C 367.483 150.069, 345.259 148.999, 330.500 151.097 M 205.204 170.296 L 191.996 183.530 202.849 194.350 L 213.702 205.169 220.491 196.475 C 224.224 191.694, 230.254 184.694, 233.889 180.920 L 240.500 174.058 232.500 168.037 C 228.100 164.725, 223.130 160.900, 221.456 159.538 L 218.411 157.061 205.204 170.296 M 281.473 167.311 C 277.058 169.615, 270.308 173.736, 266.473 176.470 C 259.070 181.746, 243.732 196.030, 238.842 202.201 L 235.910 205.902 239.205 207.568 C 245.344 210.672, 246.834 213.112, 254.954 233.370 L 263.023 253.500 280.353 260.358 L 297.683 267.216 319.315 252.858 L 340.946 238.500 340.973 221.840 L 341 205.180 316.550 188.075 C 303.103 178.668, 291.781 170.454, 291.390 169.823 C 291 169.191, 290.415 167.425, 290.090 165.898 L 289.500 163.121 281.473 167.311 M 409.965 164.736 C 409.884 168.736, 406.275 171.887, 383.432 187.902 L 359.500 204.679 359.227 221.664 L 358.954 238.650 379.473 252.325 C 390.759 259.846, 400.295 266, 400.665 266 C 401.036 266, 407.281 263.258, 414.545 259.906 L 427.750 253.813 436.125 224.686 C 444.098 196.958, 444.653 195.457, 447.684 193.424 L 450.869 191.288 446.684 187.299 C 438.993 179.968, 426.599 171.350, 416.182 166.092 C 410.772 163.361, 409.996 163.192, 409.965 164.736 M 18.265 192.750 C 19.557 219.924, 28.569 247.726, 43.521 270.663 C 49.380 279.651, 57.779 290.500, 58.879 290.500 C 59.221 290.500, 74.702 275.141, 93.281 256.369 L 127.062 222.238 122.281 218.240 C 105.474 204.184, 82.246 192.416, 59.851 186.611 C 51.083 184.338, 27.758 181.004, 20.603 181.001 L 17.706 181 18.265 192.750 M 166.073 209.426 L 152.675 222.853 157.678 228.676 C 167.937 240.617, 179.091 259.550, 186.737 278 L 187.773 280.500 188.295 278 C 188.581 276.625, 189.544 271.055, 190.433 265.621 C 192.100 255.434, 197.828 236.740, 202.296 226.905 L 204.838 221.309 192.155 208.655 L 179.472 196 166.073 209.426 M 458.617 210.750 C 455.003 222.972, 446 255.108, 446 255.787 C 446 256.278, 455.218 262.824, 466.484 270.332 L 486.967 283.983 490.493 282.302 C 494.514 280.384, 494.494 281.404, 490.859 263.581 C 487.523 247.232, 480.187 229.710, 470.627 215.263 C 466.812 209.498, 466.221 209.025, 462.817 209.013 C 460.167 209.004, 458.990 209.490, 458.617 210.750 M 221.203 228.750 C 213.443 243.709, 207.902 262.921, 206.184 280.824 L 205.385 289.148 208.338 290.675 L 211.291 292.202 228.346 275.147 L 245.401 258.092 238.594 241.016 C 232.837 226.577, 231.348 223.714, 228.943 222.470 C 227.379 221.662, 225.902 221, 225.661 221 C 225.420 221, 223.414 224.488, 221.203 228.750 M 105.516 269.984 L 71.540 303.971 75.020 306.974 C 86.744 317.092, 110.233 330.765, 122.576 334.655 C 127.720 336.277, 127.774 336.271, 136.428 333.140 C 146.122 329.632, 165.107 324.487, 172 323.499 C 180.309 322.308, 179.872 322.964, 178.326 314.012 C 175.349 296.773, 168.462 278.153, 158.850 261.353 C 154.302 253.403, 142.189 236.889, 140.496 236.329 C 139.944 236.147, 124.203 251.291, 105.516 269.984 M 329.165 267.562 C 317.540 275.317, 309.029 281.634, 309.289 282.313 C 309.540 282.966, 312.590 293.519, 316.069 305.765 L 322.394 328.031 349.913 327.765 L 377.433 327.500 383.646 306 C 387.063 294.175, 389.880 283.600, 389.906 282.500 C 389.942 280.990, 385.149 277.312, 370.362 267.500 C 359.587 260.350, 350.484 254.387, 350.133 254.249 C 349.782 254.111, 340.346 260.102, 329.165 267.562 M 237.534 290.966 C 224.497 304.015, 216.644 311.139, 214.866 311.529 C 213.234 311.888, 210.911 311.488, 209.056 310.529 L 205.965 308.931 206.566 313.215 C 207.565 320.338, 206.958 319.999, 218.719 320.008 C 243.614 320.027, 272.055 325.690, 297.202 335.633 C 302.128 337.581, 306.317 339.017, 306.510 338.823 C 307.146 338.187, 291.817 285.529, 290.644 284.323 C 289.570 283.218, 259.841 271, 258.227 271 C 257.817 271, 248.505 279.985, 237.534 290.966 M 421.005 276.538 C 414.683 279.503, 409.162 282.733, 408.736 283.715 C 408.310 284.697, 404.822 296.519, 400.984 309.986 L 394.008 334.472 403.735 344.236 L 413.462 354 443.330 354 L 473.198 354 475.974 356.973 L 478.751 359.945 481.446 353.941 C 487.668 340.078, 492.018 323.555, 493.516 308.098 C 494.193 301.114, 494.128 300.742, 492.367 301.510 C 491.340 301.958, 488.892 302.516, 486.927 302.750 C 483.689 303.136, 481.088 301.669, 459.163 287.088 C 445.859 278.240, 434.417 271.033, 433.737 271.073 C 433.056 271.113, 427.327 273.572, 421.005 276.538 M 184 339.536 C 146.461 345.196, 109.168 361.534, 80.568 384.849 C 67.779 395.275, 46.514 415.169, 45.101 418.031 C 42.602 423.090, 44.658 425.552, 62.290 438.625 C 83.181 454.114, 86.833 456.627, 96.561 462.210 C 120.338 475.855, 147.128 484.692, 176.432 488.557 C 191.282 490.516, 235.781 490.510, 250.564 488.548 C 293.421 482.859, 322.412 470.173, 364.500 438.688 C 381.151 426.232, 382 425.370, 382 420.917 C 382 417.459, 381.169 416.435, 369.750 405.824 C 341.015 379.122, 327.357 369.256, 303.500 357.966 C 285.653 349.520, 269.411 344.296, 249 340.438 C 236.933 338.158, 196.831 337.601, 184 339.536 M 321.083 346.389 C 321.313 346.603, 325.478 349.119, 330.340 351.981 C 341.615 358.617, 360.075 372.530, 371.013 382.635 C 375.696 386.961, 380.507 391.334, 381.706 392.353 L 383.885 394.206 391.370 379.261 L 398.854 364.316 389.658 355.158 L 380.462 346 350.565 346 C 334.121 346, 320.854 346.175, 321.083 346.389 M 405.956 390.088 L 396.902 408.176 398.588 412.590 C 399.814 415.802, 400.131 418.784, 399.749 423.534 C 399.134 431.205, 398.435 431.129, 411.944 424.864 C 429.688 416.635, 451.330 399.517, 462.745 384.682 L 467.273 378.797 465.653 375.398 L 464.032 372 439.521 372 L 415.011 372 405.956 390.088 M 130.636 390.636 C 128.387 392.885, 128 394.134, 128 399.136 L 128 405 122.950 405 C 117.493 405, 112.614 406.957, 111.621 409.545 C 110.211 413.219, 111.015 417.666, 113.514 420.013 C 115.415 421.799, 117.486 422.480, 122.014 422.807 L 128 423.240 128 428.946 C 128 433.755, 128.397 435.024, 130.527 437.026 C 132.178 438.576, 134.250 439.400, 136.500 439.400 C 138.750 439.400, 140.822 438.576, 142.473 437.026 C 144.615 435.013, 145 433.764, 145 428.826 L 145 423 153.500 423 L 162 423 162 428.277 C 162 436.753, 166.746 441.229, 173.402 439.032 C 177.440 437.700, 179.041 435.001, 179.725 428.378 L 180.280 423 188.140 423 L 196 423 196 428.277 C 196 436.940, 200.735 441.233, 207.741 438.921 C 211.764 437.593, 214 433.345, 214 427.032 L 214 423 222 423 L 230 423 230 427.435 C 230 433.755, 231.453 436.772, 235.406 438.656 C 242.187 441.890, 248 436.764, 248 427.550 L 248 423 256 423 L 264 423 264 427.550 C 264 433.394, 266.097 437.383, 270.025 439.010 C 272.682 440.111, 273.654 440.059, 276.594 438.656 C 280.547 436.772, 282 433.755, 282 427.435 L 282 423 286.032 423 C 297.367 423, 302.879 414.726, 296.077 407.923 C 293.545 405.391, 292.408 405, 287.577 405 L 282 405 282 399.423 C 282 394.592, 281.609 393.455, 279.077 390.923 C 275.440 387.286, 271.184 387.077, 267.380 390.349 C 265.089 392.321, 264.578 393.687, 264.205 398.849 L 263.760 405 256 405 L 248.240 405 247.795 398.849 C 247.422 393.687, 246.911 392.321, 244.620 390.349 C 240.816 387.077, 236.560 387.286, 232.923 390.923 C 230.391 393.455, 230 394.592, 230 399.423 L 230 405 222.139 405 L 214.278 405 213.712 398.761 C 213.249 393.660, 212.667 392.111, 210.517 390.261 C 207.632 387.779, 204.405 387.403, 200.657 389.110 C 197.450 390.571, 196 393.977, 196 400.047 L 196 405 188 405 L 180 405 180 400.968 C 180 389.787, 171.322 383.951, 164.636 390.636 C 162.387 392.885, 162 394.134, 162 399.136 L 162 405 153.500 405 L 145 405 145 398.952 C 145 393.697, 144.653 392.583, 142.354 390.452 C 138.758 387.120, 134.079 387.193, 130.636 390.636"
        stroke="none" fill="currentColor" fill-rule="evenodd" />
</svg>