<svg xmlns="http://www.w3.org/2000/svg" width="512" height="512" viewBox="0 0 512 512" version="1.1">
    <path d="" stroke="none" fill="currentColor" fill-rule="evenodd" />
    <path
        d="M 101.230 2.015 C 81.794 7.107, 64.184 21.425, 55.680 39.049 C 53.171 44.247, 50.561 51.271, 49.878 54.658 L 48.638 60.816 35.069 61.184 C 23.401 61.500, 20.908 61.864, 17.278 63.782 C 11.013 67.091, 6.746 71.225, 3.446 77.181 L 0.500 82.500 0.218 138.628 C -0.057 193.493, -0.016 194.882, 2.029 200.349 C 4.575 207.153, 11.222 214.301, 17.780 217.290 C 21.615 219.037, 24.885 219.511, 35.224 219.820 L 47.947 220.199 48.224 307.350 L 48.500 394.500 51.224 402.500 C 58.617 424.209, 75.906 441.572, 96.728 448.199 L 103.956 450.500 103.986 460 C 104.057 482.953, 109.769 496.386, 123.222 505.243 C 131.774 510.873, 137.312 512.223, 150.266 511.836 C 159.939 511.547, 162.294 511.128, 167.218 508.820 C 173.952 505.664, 182.141 498.321, 185.700 492.249 C 190.361 484.295, 192 476.923, 192 463.911 L 192 452 256 452 L 320 452 320 463.911 C 320 476.923, 321.639 484.295, 326.300 492.249 C 329.859 498.321, 338.048 505.664, 344.782 508.820 C 349.706 511.128, 352.061 511.547, 361.734 511.836 C 374.688 512.223, 380.226 510.873, 388.778 505.243 C 402.231 496.386, 407.943 482.953, 408.014 460 L 408.044 450.500 415.272 448.199 C 425.572 444.921, 435.414 438.732, 443.500 430.449 C 451.790 421.956, 457.045 413.455, 460.776 402.500 L 463.500 394.500 463.776 307.350 L 464.053 220.199 476.776 219.820 C 487.115 219.511, 490.385 219.037, 494.220 217.290 C 500.413 214.468, 507.407 207.163, 509.587 201.239 C 510.546 198.633, 511.706 196.073, 512.165 195.550 C 513.291 194.269, 513.248 83.729, 512.122 84.425 C 511.639 84.723, 510.994 83.721, 510.690 82.199 C 509.773 77.613, 503.805 69.704, 498.677 66.277 C 492.040 61.841, 488.307 61.012, 474.950 61.006 L 463.400 61 462.149 54.750 C 461.461 51.313, 458.806 44.225, 456.249 39 C 447.471 21.060, 430.057 7.002, 410.377 1.968 C 402.887 0.053, 398.718 0.001, 255.590 0.055 C 114.254 0.108, 108.216 0.185, 101.230 2.015 M 112 22.681 C 97.498 25.166, 83.704 34.889, 76.569 47.655 C 72.053 55.735, 70.837 61.546, 70.268 77.750 L 69.732 93 256 93 L 442.268 93 441.732 77.750 C 441.389 67.978, 440.622 60.658, 439.596 57.371 C 434.907 42.354, 423.575 30.560, 408.172 24.669 L 402.500 22.500 258.500 22.376 C 179.300 22.308, 113.375 22.445, 112 22.681 M 27.020 84.284 C 22.055 86.796, 22.030 87.070, 22.015 140.300 C 21.999 192.809, 22.151 194.693, 26.545 196.379 C 27.435 196.720, 32.627 197, 38.082 197 L 48 197 48 140 L 48 83 38.750 83.015 C 33.344 83.023, 28.469 83.551, 27.020 84.284 M 464 139.909 L 464 197 474.500 197 C 485.834 197, 488.218 196.011, 489.511 190.775 C 489.820 189.524, 489.944 165.900, 489.786 138.277 L 489.500 88.054 487.225 85.777 C 485.201 83.752, 483.790 83.462, 474.475 83.159 L 464 82.818 464 139.909 M 0.467 140.500 C 0.467 171.300, 0.594 184.044, 0.749 168.821 C 0.904 153.598, 0.905 128.398, 0.749 112.821 C 0.594 97.244, 0.467 109.700, 0.467 140.500 M 70 197 L 70 279 156.500 279 L 243 279 243 197 L 243 115 156.500 115 L 70 115 70 197 M 266 197 L 266 279 354 279 L 442 279 442 197 L 442 115 354 115 L 266 115 266 197 M 70.229 345.250 C 70.570 387.247, 70.695 389.784, 72.684 395.087 C 75.730 403.206, 77.791 406.917, 82.192 412.203 C 87.349 418.398, 96.639 424.499, 104.705 426.991 C 111.094 428.964, 113.813 429, 256 429 C 398.187 429, 400.906 428.964, 407.295 426.991 C 415.361 424.499, 424.651 418.398, 429.808 412.203 C 434.209 406.917, 436.270 403.206, 439.316 395.087 C 441.305 389.784, 441.430 387.247, 441.771 345.250 L 442.131 301 256 301 L 69.869 301 70.229 345.250 M 137.184 326.498 C 117.331 332.081, 104.037 352.603, 107.059 373 C 108.718 384.190, 111.903 390.651, 119.409 398.047 C 141.954 420.262, 179.583 409.184, 187.587 377.975 C 192.874 357.361, 181.686 335.285, 162.252 327.984 C 154.795 325.183, 144.112 324.550, 137.184 326.498 M 354.251 326.545 C 331.598 332.645, 318.550 355.489, 324.552 378.540 C 329.909 399.114, 350.076 412.603, 370.434 409.230 C 390.921 405.835, 405.212 388.687, 405.212 367.500 C 405.212 339.720, 380.143 319.573, 354.251 326.545 M 138.500 350.454 C 131.951 354.440, 129.498 359.072, 129.512 367.427 C 129.523 373.481, 129.922 375.087, 132.280 378.576 C 136.396 384.664, 141.802 387.327, 148.991 386.807 C 153.371 386.490, 155.694 385.708, 158.411 383.635 C 168.089 376.254, 168.804 360.648, 159.847 352.317 C 154.472 347.317, 145.011 346.491, 138.500 350.454 M 357.001 349.123 C 347.430 352.940, 342.847 366.899, 347.908 376.819 C 351.069 383.015, 356.040 386.303, 363.009 386.807 C 370.198 387.327, 375.604 384.664, 379.720 378.576 C 382.079 375.085, 382.477 373.483, 382.488 367.415 C 382.498 361.294, 382.124 359.786, 379.736 356.341 C 374.714 349.094, 364.893 345.976, 357.001 349.123 M 222 367.500 L 222 379 256 379 L 290 379 290 367.500 L 290 356 256 356 L 222 356 222 367.500 M 127.147 464.415 C 127.486 476.328, 127.622 477.005, 130.513 481.165 C 135.076 487.729, 140.731 490.247, 149.727 489.724 C 155.572 489.384, 157.718 488.774, 160.942 486.540 C 167.229 482.183, 169.304 476.746, 169.820 463.284 L 170.252 452 148.523 452 L 126.794 452 127.147 464.415 M 342.180 463.284 C 342.696 476.746, 344.771 482.183, 351.058 486.540 C 354.282 488.774, 356.428 489.384, 362.273 489.724 C 371.269 490.247, 376.924 487.729, 381.487 481.165 C 384.378 477.005, 384.514 476.328, 384.853 464.415 L 385.206 452 363.477 452 L 341.748 452 342.180 463.284"
        stroke="none" fill="currentColor" fill-rule="evenodd" />
</svg>